<?xml version="1.0" encoding="utf-8"?>
<!-- Generator: Adobe Illustrator 21.0.0, SVG Export Plug-In . SVG Version: 6.00 Build 0)  -->
<svg version="1.1" id="Layer_1" xmlns="http://www.w3.org/2000/svg" xmlns:xlink="http://www.w3.org/1999/xlink" x="0px" y="0px"
	 viewBox="0 0 800 404" style="enable-background:new 0 0 800 404;" xml:space="preserve">
<style type="text/css">
	.st0{fill:#121720;}
	.st1{fill:#303740;}
	.st2{fill:#ACC8C4;}
	.st3{fill:#63807D;}
	.st4{fill:#353633;}
	.st5{fill:#474749;}
	.st6{fill:#252B34;}
	.st7{fill:#7F2A25;}
	.st8{fill:#84A7A3;}
	.st9{fill:#A5BAB3;}
	.st10{fill:#374B60;}
	.st11{fill:#2A3C4B;}
	.st12{fill:#445C6C;}
	.st13{fill:#404853;}
	.st14{fill:#1E242D;}
	.st15{fill:#545C66;}
	.st16{fill:#C6D1C5;}
	.st17{opacity:0.15;fill:#404041;}
	.st18{opacity:0.2;fill:#404041;}
	.st19{fill:#6B5561;}
	.st20{fill:#525A66;}
	.st21{fill:#5B3F4F;}
	.st22{fill:#7C6270;}
	.st23{fill:#243543;}
	.st24{fill:#748484;}
	.st25{fill:#94745A;}
	.st26{fill:#CA9978;}
	.st27{fill:#3B434C;}
	.st28{fill:#282E37;}
	.st29{fill:#6D7784;}
	.st30{fill:#C99D67;}
	.st31{fill:#DDB483;}
	.st32{fill:#B1804A;}
	.st33{fill:#9AB9B5;}
	.st34{fill:#6F8D8A;}
	.st35{fill:#494A4C;}
	.st36{fill:#8EA6A3;}
	.st37{fill:#A5B7B1;}
	.st38{fill:#BDD6D2;}
	.st39{fill:#6E8C88;}
	.st40{fill:#56716E;}
	.st41{fill:#9DB7B4;}
	.st42{fill:#FFFFFF;}
	.st43{fill:#565E6B;}
</style>
<g>
	<g>
		<polygon class="st0" points="452.8,291.6 653.3,299.4 653.5,294.6 453,286.8 		"/>
		<polygon class="st1" points="343.2,87.1 373.8,87.1 373.8,78.2 343.2,76.3 		"/>
		<path class="st2" d="M343,76.3l31,1.9c0.4,0,0.8-0.3,0.8-0.8v-3.9c0-0.4-0.3-0.8-0.7-0.8l-31-1.9c-0.4,0-0.8,0.3-0.8,0.8v3.9
			C342.2,76,342.5,76.3,343,76.3z"/>
		<polygon class="st0" points="419.9,292.3 436.4,292.3 440.2,292.3 445.5,292.3 449.4,292.3 459.6,292.3 459.6,296.7 449.4,296.7 
			449.4,299.4 445.5,299.4 445.5,296.7 440.2,296.7 440.2,299.4 436.4,299.4 436.4,296.7 419.9,296.7 419.9,299.4 406.6,299.4 
			406.6,292.3 		"/>
		<path class="st3" d="M296.8,256c0.6-9.6,6.7-18.8,13-22.3c3.9-2.2,10.2-3.5,14.6-3.8l13.9-0.8l-2.6,12.5
			c-7.2-0.4-15.5,1.7-15.5,1.7c-4.2,2.3-6.8,5.5-8.3,9c-3.1,7.2-1.6,15.6,3.5,21.6l31.4,33.2c11.7,15.1,33.3,11.6,33.3,11.6
			L496.7,306c20.6-1.7,32.3-13,32.3-13l37.2-38c6.5-6.4,10.6-9.4,14.3-10.2c3.6-0.8,7.3,1,8.7,4.4c3.4,8.7-7.7,18.7-7.7,18.7
			l-34.4,32.7c-14.6,17.2-33.8,18.6-33.8,18.6s-107,14.2-130.2,15.8c-8.4,0.6-17.1,0.1-25.1-2.4c-7.4-2.2-13-6.8-18.6-12.1
			c-9.6-9-17.4-20.1-25.7-30.4C294.5,266.7,296.8,256,296.8,256z"/>
		<g>
			<path class="st0" d="M638.9,311.4l-20.4,20.3l1,1l19.6-19.5l0.8,10.5l-9.8,10.9l1,0.9l8.9-9.9l1.1,14.6l1.3-0.1l-1.2-15.9
				l5.1-5.6l8.3,20.4l1.3-0.5l-8.6-21l10.4-11.5l-1-0.9l-10,11.1l-3.1-7.5l4-4l-1-1l-3.6,3.6l-2.3-5.7l-1.2,0.5l-0.1-1.7l-1.3,0.1
				L638.9,311.4z M642.1,308.3l-1.9,1.9l-0.6-8.1L642.1,308.3z M640.3,311.9l2.3-2.3l3.1,7.5l-4.6,5.1L640.3,311.9z"/>
			<path class="st0" d="M694,284.6l20.3,20.4l1-1l-19.5-19.6l10.5-0.8l10.9,9.8l0.9-1l-9.9-8.9l14.6-1.1l-0.1-1.3l-15.9,1.2
				l-5.6-5.1l20.4-8.4l-0.5-1.2l-20.9,8.6l-11.6-10.4l-0.9,1l11.1,10l-7.4,3.1l-4-4l-0.9,1l3.6,3.6l-5.7,2.3l0.5,1.2l-1.7,0.1
				l0.1,1.3L694,284.6z M690.8,281.4l1.9,1.9l-8.1,0.6L690.8,281.4z M694.5,283.2l-2.3-2.3l7.5-3.1l5.1,4.6L694.5,283.2z"/>
			<path class="st0" d="M657.4,238.2l1,0.9l4.9-5.1l2.4,6l1-0.4v0.1l1.4-0.1l-0.7-9.9l18.8-19.2l-1-0.9L667.3,228l-0.7-10.4
				l10.4-11.3l-1-0.9l-9.5,10.3l-1.1-15.8l-1.3,0.1l1.1,17.1l-5,5.5l-8.1-20l-1.2,0.5l8.3,20.6l-10.1,11l1,0.9l9.7-10.5l3,7.6
				L657.4,238.2z M666.1,229.3l-2.2,2.3l-3.1-7.6l4.6-5L666.1,229.3z M664.4,233l1.8-1.8l0.5,7.6L664.4,233z"/>
			<path class="st0" d="M692.1,251.4h27.8V250h-26.6l6.7-7.6l14.7-0.7l-0.1-1.4l-13.4,0.6l10.5-12l-1-0.9l-11.3,13l-7.3,0.3
				l8.3-19.9l-1.3-0.5l-8.5,20.5l-15.7,0.7l0.1,1.4l15-0.7l-3,7.1H680v1.4h6.4l-2.7,6.4l0.7,0.3l0,0l1,0.9L692.1,251.4z
				 M687.9,251.4h2.4l-4.7,5.3L687.9,251.4z M691.5,250h-3l3-7.2l6.6-0.3L691.5,250z"/>
			<path class="st0" d="M642.4,237.1l-7.8-6.4l-0.8-27.8l-1.4,0l0.7,26.6l-7.8-6.4l-1.1-14.7l-1.3,0.1l1,13.4l-12.3-10.2l-0.8,1
				l13.3,11l0.5,7.3l-20.1-7.7l-0.5,1.3l20.7,8l1.1,15.6l1.4-0.1l-1.1-15l7.2,2.8l0.2,6.9l1.4,0l-0.2-6.4l6.5,2.5l0.3-0.7l0,0
				L642.4,237.1z M633.3,231.3l0.1,3.1l-7.3-2.8l-0.5-6.6L633.3,231.3z M634.7,232.5l5.5,4.5l-5.4-2.1L634.7,232.5z"/>
			<path class="st0" d="M598.5,257.3l6.9,6.2l-21.5,8.4l0.5,1.3l22.2-8.6l10.5,9.4l0.9-1l-10-9l7.4-2.9l3.6,3.6l0.9-1l-3.2-3.1
				l4.7-1.8l-0.5-1.3l-5.3,2l-3.2-3.1l9.2-0.6l-0.1-1.3l-10.5,0.7l-19.7-19.4l-0.9,1l18.8,18.5l-10.5,0.6l-10.7-9.6l-0.9,1l9.7,8.7
				l-15.1,1l0.1,1.4L598.5,257.3z M600.4,257.2l10.4-0.6l3.6,3.5l-7.5,2.9L600.4,257.2z"/>
			<path class="st0" d="M663.1,302.2l9.1,7.7l-0.3,24.9l1.4,0l0.3-23.8l7.4,6.2l0.6,16.5l1.3-0.1l-0.5-15.3l8.8,7.4l0.9-1l-9.7-8.2
				l-0.3-7.3l19.5,8.3l0.5-1.2l-20.1-8.5l-0.7-18.6l-1.4,0l0.6,17.9l-6.9-3l0.1-9.3l-1.4,0l-0.1,8.8l-7.9-3.4l-0.3,0.8L663.1,302.2z
				 M673.5,309.2l0-3.5l7,3l0.2,6.7L673.5,309.2z M672.2,308.1l-7-5.9l7,3L672.2,308.1z"/>
			<path class="st0" d="M612.7,290l-24.9,0.8l0,1.4l23.8-0.8l-5.9,7.6l-16.5,1.3l0.1,1.4l15.3-1.2l-7,9.1l1.1,0.8l7.8-10.1l7.3-0.6
				l-7.4,19.8l1.3,0.5l7.6-20.4l18.5-1.5l-0.1-1.4l-17.9,1.4l2.7-7.1l9.3-0.3l0-1.4l-8.8,0.3l3-8.1l-0.8-0.3l0,0l-1.1-0.8L612.7,290
				z M617.4,289.8l-2.9,0.1l5.6-7.3L617.4,289.8z M613.4,291.3l3.5-0.1l-2.7,7.1l-6.7,0.5L613.4,291.3z"/>
		</g>
		<path class="st4" d="M557.2,271.1c0,53.1,43.1,96.2,96.2,96.2c53.1,0,96.2-43.1,96.2-96.2c0-53.2-43.1-96.2-96.2-96.2
			C600.3,174.9,557.2,218,557.2,271.1z M586.4,271.1c0-37,30-67.1,67.1-67.1c37,0,67.1,30,67.1,67.1c0,37-30,67.1-67.1,67.1
			C616.4,338.2,586.4,308.2,586.4,271.1z"/>
		<path class="st5" d="M557.2,271.1c0,53.1,43.1,96.2,96.2,96.2c53.1,0,96.2-43.1,96.2-96.2c0-53.2-43.1-96.2-96.2-96.2
			C600.3,174.9,557.2,218,557.2,271.1z M562.2,271.1c0-50.4,40.8-91.2,91.2-91.2c50.4,0,91.2,40.8,91.2,91.2
			c0,50.4-40.9,91.2-91.2,91.2C603,362.4,562.2,321.5,562.2,271.1z"/>
		<path class="st5" d="M579.4,271.1c0,40.8,33.1,74,74,74c40.8,0,73.9-33.1,73.9-74c0-40.8-33.1-74-73.9-74
			C612.6,197.2,579.4,230.3,579.4,271.1z M586.3,271.1c0-37,30-67.1,67.1-67.1c37,0,67,30,67,67.1c0,37-30,67.1-67,67.1
			C616.4,338.2,586.3,308.2,586.3,271.1z"/>
		<path class="st5" d="M653.4,356.3c-15,0-29.7-3.9-42.5-11.4l1.8-1.8c12.4,7,26.5,10.7,40.8,10.7c45.6,0,82.7-37.1,82.7-82.7
			c0-14.3-3.7-28.4-10.7-40.8l1.8-1.8c7.4,12.9,11.4,27.6,11.4,42.5C738.5,318.1,700.4,356.3,653.4,356.3z"/>
		<g>
			<path class="st0" d="M167.6,307.1l-18.3,18.1l0.8,0.9l17.6-17.4l0.7,9.4l-8.8,9.7l0.9,0.8l8-8.9l1,13.1l1.2-0.1l-1.1-14.2l4.5-5
				l7.5,18.2l1.1-0.5l-7.7-18.8l9.3-10.3l-0.9-0.8l-8.9,9.9l-2.7-6.7l3.6-3.6l-0.8-0.9l-3.3,3.2l-2.1-5.1l-1.1,0.4l-0.1-1.5
				l-1.2,0.1L167.6,307.1z M170.4,304.3l-1.7,1.7l-0.6-7.2L170.4,304.3z M168.8,307.6l2.1-2.1l2.8,6.7l-4.2,4.6L168.8,307.6z"/>
			<path class="st0" d="M216.9,283.1l18.2,18.3l0.9-0.9L218.5,283l9.4-0.7l9.8,8.8l0.8-0.9l-8.9-8l13.1-1l-0.1-1.2l-14.2,1.1l-5-4.5
				l18.2-7.5l-0.5-1.1l-18.8,7.7l-10.3-9.3l-0.8,0.9l9.9,8.9l-6.7,2.7l-3.6-3.6l-0.8,0.8l3.2,3.3l-5.1,2.1l0.5,1.1l-1.6,0.1l0.1,1.2
				L216.9,283.1z M214,280.2l1.7,1.7l-7.2,0.5L214,280.2z M217.4,281.8l-2.1-2.1l6.7-2.8l4.6,4.1L217.4,281.8z"/>
			<path class="st0" d="M184.1,241.5l0.9,0.9l4.4-4.5l2.2,5.4l0.9-0.4l0,0.1l1.2-0.1l-0.6-8.8l16.8-17.2L209,216L193,232.4l-0.6-9.3
				l9.3-10.1l-0.9-0.8l-8.5,9.3l-1-14.2l-1.2,0.1l1,15.3l-4.5,4.9l-7.2-17.9l-1.1,0.4l7.4,18.4l-11.1,11.9l0.9,0.8l10.7-11.5
				l2.7,6.8L184.1,241.5z M191.9,233.6l-2,2l-2.8-6.8l4.1-4.5L191.9,233.6z M190.3,236.9l1.6-1.6l0.5,6.8L190.3,236.9z"/>
			<path class="st0" d="M215.2,253.4H240v-1.2h-23.8l5.9-6.8l13.2-0.6l-0.1-1.2l-12,0.5l9.4-10.7l-0.9-0.8l-10.2,11.6l-6.5,0.3
				l7.4-17.8l-1.1-0.5l-7.6,18.3l-14.1,0.6l0.1,1.2l13.5-0.6l-2.7,6.4h-6.2v1.2h5.7l-2.4,5.7l0.6,0.2v0l0.9,0.8L215.2,253.4z
				 M211.4,253.4h2.2l-4.2,4.8L211.4,253.4z M214.6,252.2h-2.7l2.7-6.5l5.9-0.3L214.6,252.2z"/>
			<path class="st0" d="M171.1,240.9l-7.3-6.1l-0.7-24.8l-1.2,0l0.7,23.8l-7-5.8l-1-13.2l-1.2,0.1l0.9,12l-11-9.1l-0.8,0.9l11.9,9.9
				l0.5,6.5l-18-6.9l-0.4,1.1l18.5,7.1l1.1,14.7l1.2-0.1l-1-14.1l6.5,2.5l0.2,6.2l1.2,0l-0.2-5.7l5.8,2.2l0.2-0.6l0.4,0.3
				L171.1,240.9z M162.5,235.4l0.1,2.7l-6.5-2.5l-0.4-6L162.5,235.4z M163.8,236.4l4.9,4l-4.8-1.9L163.8,236.4z"/>
			<path class="st0" d="M131.4,258.6l6.2,5.6l-19.3,7.5l0.4,1.1l19.9-7.7l10.8,9.7l0.8-0.9l-10.3-9.3l6.7-2.6l3.3,3.2l0.8-0.9
				l-2.9-2.8l4.2-1.6l-0.5-1.1l-4.7,1.8l-2.8-2.8l9-0.6l-0.1-1.2l-10.1,0.7l-17.7-17.3l-0.8,0.9l16.9,16.6l-9.4,0.6l-9.5-8.6
				l-0.8,0.9l8.6,7.8l-13.5,0.9l0.1,1.2L131.4,258.6z M133.1,258.5l9.3-0.6l3.2,3.2l-6.7,2.6L133.1,258.5z"/>
			<path class="st0" d="M189.2,298.8l8.1,6.9l-0.2,22.3l1.2,0l0.2-21.3l6.6,5.6l0.5,14.8l1.2,0l-0.5-13.7l7.9,6.7l0.8-0.9l-8.7-7.4
				l-0.2-6.5l17.5,7.4l0.5-1.1l-18-7.6l-0.6-16.6l-1.2,0l0.6,16.1l-6.2-2.6l0.1-8.4l-1.2,0l-0.1,7.9l-7.1-3l-0.3,0.7L189.2,298.8z
				 M198.6,305.1l0-3.1l6.3,2.7l0.2,6L198.6,305.1z M197.4,304.1l-6.3-5.3l6.3,2.7L197.4,304.1z"/>
			<path class="st0" d="M144.1,287.9l-22.3,0.7l0,1.2l21.3-0.7l-5.3,6.8l-14.8,1.2l0.1,1.2l13.7-1.1l-6.3,8.2l0.9,0.8l7-9.1l6.5-0.5
				l-6.6,17.8l1.1,0.4l6.8-18.3l16.6-1.3l-0.1-1.2l-16,1.3l2.4-6.3l8.3-0.3l0-1.2l-7.8,0.3l2.7-7.2l-0.7-0.3l0,0l-1-0.7L144.1,287.9
				z M148.3,287.8l-2.6,0.1l5-6.5L148.3,287.8z M144.7,289.1l3.1-0.1l-2.4,6.4l-6,0.5L144.7,289.1z"/>
		</g>
		<path class="st6" d="M113.6,271.1c0,37,30,67.1,67.1,67.1c37,0,67.1-30,67.1-67.1c0-37-30-67.1-67.1-67.1
			C143.7,204.1,113.6,234.1,113.6,271.1z M121.8,271.1c0-32.6,26.4-58.9,58.9-58.9c32.5,0,58.9,26.4,58.9,58.9s-26.4,58.9-58.9,58.9
			C148.2,330.1,121.8,303.7,121.8,271.1z"/>
		<path class="st4" d="M84.5,271.1c0,53.1,43.1,96.2,96.2,96.2c53.2,0,96.2-43.1,96.2-96.2c0-53.2-43.1-96.2-96.2-96.2
			C127.6,174.9,84.5,218,84.5,271.1z M113.6,271.1c0-37,30-67.1,67.1-67.1c37,0,67.1,30,67.1,67.1c0,37-30,67.1-67.1,67.1
			C143.7,338.2,113.6,308.2,113.6,271.1z"/>
		<path class="st5" d="M84.5,271.1c0,53.1,43.1,96.2,96.2,96.2c53.2,0,96.2-43.1,96.2-96.2c0-53.2-43.1-96.2-96.2-96.2
			C127.6,174.9,84.5,218,84.5,271.1z M89.5,271.1c0-50.4,40.8-91.2,91.2-91.2c50.4,0,91.2,40.8,91.2,91.2
			c0,50.4-40.9,91.2-91.2,91.2C130.3,362.4,89.5,321.5,89.5,271.1z"/>
		<path class="st5" d="M106.7,271.1c0,40.8,33.1,74,74,74c40.9,0,74-33.1,74-74c0-40.8-33.1-74-74-74
			C139.9,197.2,106.7,230.3,106.7,271.1z M113.6,271.1c0-37,30-67.1,67.1-67.1c37,0,67.1,30,67.1,67.1c0,37-30,67.1-67.1,67.1
			C143.7,338.2,113.6,308.2,113.6,271.1z"/>
		
			<rect x="479.7" y="147" transform="matrix(-1 -4.488599e-11 4.488599e-11 -1 982.3671 305.6668)" class="st0" width="22.9" height="11.8"/>
		<path class="st6" d="M586.4,271.1c0,37,30,67.1,67.1,67.1c37,0,67.1-30,67.1-67.1c0-37-30-67.1-67.1-67.1
			C616.4,204.1,586.4,234.1,586.4,271.1z M594.5,271.1c0-32.6,26.4-58.9,58.9-58.9c32.6,0,58.9,26.4,58.9,58.9s-26.4,58.9-58.9,58.9
			C620.9,330.1,594.5,303.7,594.5,271.1z"/>
		<path class="st7" d="M603.7,228.1h20.9v3.1h-20.9c-2.8,0-5,2.3-5,5v10h-3.1v-10C595.5,231.8,599.2,228.1,603.7,228.1z"/>
		<path class="st7" d="M266.4,63.3l19.1,8.5l-1.3,2.9l-19.1-8.5c-2.5-1.1-5.5,0-6.7,2.6l-4.1,9.2l-2.8-1.3l4-9.2
			C257.4,63.4,262.3,61.5,266.4,63.3z"/>
		<polygon class="st0" points="453.3,249.3 653.7,241.4 653.9,246.2 453.5,254.1 		"/>
		<path class="st0" d="M623.3,271.1c0,16.6,13.5,30.2,30.2,30.2c16.6,0,30.2-13.5,30.2-30.2c0-16.6-13.5-30.2-30.2-30.2
			C636.8,241,623.3,254.5,623.3,271.1z M646.5,262.1c1.6-1.2,3.5-2.1,5.6-2.3v3c-1.3,0.2-2.5,0.7-3.5,1.4L646.5,262.1z M655.1,259.8
			c2.1,0.3,3.9,1.2,5.5,2.4l-2.1,2.2c-1-0.7-2.1-1.3-3.3-1.5V259.8z M662.7,264.5c1.1,1.6,1.9,3.4,2.1,5.4h-3.1
			c-0.2-1.2-0.6-2.3-1.2-3.3L662.7,264.5z M664.7,273c-0.3,1.9-1.1,3.7-2.2,5.2l-2.1-2.2c0.6-0.9,1.1-1.9,1.3-3H664.7z M660.3,280.3
			c-1.5,1.1-3.3,1.9-5.2,2.2v-3c1.1-0.2,2.1-0.7,3-1.3L660.3,280.3z M652.1,282.5c-2-0.2-3.8-1-5.3-2.1l2.2-2.2c0.9,0.6,2,1,3.1,1.2
			V282.5z M644.6,278.3c-1.2-1.5-2-3.3-2.4-5.3h3.1c0.2,1.2,0.7,2.2,1.4,3.2L644.6,278.3z M642.1,269.9c0.2-2.1,1-4,2.2-5.6l2.2,2.2
			c-0.7,1-1.1,2.2-1.3,3.4H642.1z M640.4,256.1c3.2-2.8,7.2-4.5,11.7-4.9v2.7c-3.7,0.3-7.1,1.8-9.8,4.1L640.4,256.1z M655.1,251.2
			c4.4,0.4,8.4,2.2,11.6,5l-1.9,1.9c-2.6-2.3-6-3.8-9.6-4.1V251.2z M668.8,258.4c2.6,3.2,4.3,7.2,4.6,11.5h-2.7
			c-0.3-3.6-1.6-6.9-3.8-9.6L668.8,258.4z M673.4,273c-0.4,4.3-2.2,8.2-4.8,11.2l-1.9-1.9c2.2-2.6,3.6-5.8,4-9.3H673.4z
			 M666.4,286.4c-3.1,2.6-7,4.3-11.3,4.7v-2.7c3.5-0.3,6.7-1.7,9.3-3.9L666.4,286.4z M652.1,291.1c-4.3-0.3-8.2-2-11.4-4.6l1.9-1.9
			c2.6,2.1,5.9,3.5,9.4,3.8V291.1z M638.5,284.3c-2.7-3.1-4.5-7-4.9-11.4h2.7c0.4,3.6,1.9,6.9,4.1,9.5L638.5,284.3z M633.5,269.9
			c0.3-4.4,2-8.5,4.7-11.7l1.9,1.9c-2.2,2.7-3.6,6.1-3.9,9.7H633.5z"/>
		<g>
			<path class="st8" d="M132.5,271.1c0,26.6,21.6,48.2,48.2,48.2c26.6,0,48.2-21.6,48.2-48.2c0-26.6-21.6-48.2-48.2-48.2
				C154.1,222.9,132.5,244.6,132.5,271.1z M144.6,271.1c0-1.3,0.1-2.6,0.2-3.9c3.4,0.4,8.2,1.5,9.8-2.4c0.7-1.6-0.2-3.2-1.4-4.3
				c-1.6-1.5-3.8-2.5-5.7-3.6c5.1-12,16.7-20.7,30.2-21.7c0,0,0,0.1,0,0.1c0.5,3.4,0.4,8.8,4.8,9.4c1.8,0.3,3.1-0.9,3.9-2.4
				c1.1-1.9,1.5-4.3,2.1-6.4c11.6,2.6,21.1,10.8,25.5,21.6c-1.6,0.8-3.2,1.7-4.5,2.9c-1.2,1.1-2,2.7-1.4,4.3
				c1.4,3.4,5.2,3.1,8.4,2.6c0.1,1.2,0.2,2.4,0.2,3.7c0,9.3-3.5,17.8-9.3,24.2c-1.7-1.3-3.4-2.7-5.3-3.5c-1.5-0.6-3.3-0.7-4.6,0.5
				c-2.8,3-0.1,6.7,1.7,9.6c-5.4,3.3-11.8,5.2-18.6,5.2c-5.8,0-11.3-1.4-16.2-3.9c0.8-1.8,1.7-3.7,2.1-5.6c0.3-1.6,0-3.4-1.5-4.3
				c-3.6-2.1-6.7,1.5-9.1,3.9C149,290.7,144.6,281.4,144.6,271.1z"/>
			<path class="st9" d="M132.5,271.1c0,26.6,21.6,48.2,48.2,48.2c26.6,0,48.2-21.6,48.2-48.2c0-26.6-21.6-48.2-48.2-48.2
				C154.1,222.9,132.5,244.6,132.5,271.1z M135.6,271.1c0-24.9,20.2-45.1,45.1-45.1c24.9,0,45.1,20.2,45.1,45.1
				c0,24.9-20.2,45.1-45.1,45.1C155.8,316.2,135.6,296,135.6,271.1z"/>
		</g>
		<path class="st6" d="M148.7,271.1c0,17.6,14.3,32,32,32c17.6,0,32-14.3,32-32c0-17.6-14.3-32-32-32
			C163.1,239.2,148.7,253.5,148.7,271.1z M173.3,261.6c1.7-1.3,3.7-2.2,5.9-2.5v3.2c-1.3,0.2-2.6,0.7-3.7,1.5L173.3,261.6z
			 M182.4,259.2c2.2,0.3,4.2,1.2,5.8,2.5L186,264c-1-0.8-2.2-1.3-3.6-1.6V259.2z M190.5,264.1c1.2,1.7,2,3.6,2.2,5.8h-3.2
			c-0.2-1.3-0.6-2.4-1.3-3.5L190.5,264.1z M192.6,273.1c-0.3,2.1-1.2,3.9-2.4,5.5l-2.3-2.3c0.7-1,1.2-2.1,1.4-3.2H192.6z
			 M187.9,280.8c-1.6,1.2-3.4,2-5.5,2.3v-3.2c1.2-0.2,2.2-0.7,3.2-1.3L187.9,280.8z M179.2,283.1c-2.1-0.3-4-1-5.6-2.2l2.3-2.3
			c1,0.6,2.1,1.1,3.3,1.3V283.1z M171.3,278.7c-1.3-1.6-2.2-3.5-2.5-5.6h3.2c0.3,1.2,0.8,2.4,1.6,3.4L171.3,278.7z M168.7,269.8
			c0.2-2.2,1.1-4.2,2.3-5.9l2.3,2.3c-0.7,1.1-1.2,2.3-1.4,3.6H168.7z M166.8,255.2c3.4-2.9,7.7-4.8,12.4-5.1v2.9
			c-3.9,0.3-7.5,1.9-10.3,4.3L166.8,255.2z M182.4,250.1c4.7,0.4,8.9,2.3,12.3,5.2l-2,2c-2.8-2.4-6.3-4-10.2-4.4V250.1z M197,257.6
			c2.8,3.4,4.6,7.6,4.8,12.2h-2.9c-0.3-3.8-1.7-7.4-4-10.2L197,257.6z M201.8,273.1c-0.4,4.5-2.3,8.7-5.1,11.9l-2-2
			c2.3-2.7,3.8-6.2,4.2-9.9H201.8z M194.4,287.3c-3.3,2.8-7.4,4.6-11.9,4.9v-2.9c3.7-0.3,7.2-1.8,9.9-4.1L194.4,287.3z M179.2,292.2
			c-4.5-0.3-8.7-2.1-12-4.8l2.1-2.1c2.8,2.3,6.2,3.7,10,4V292.2z M164.9,285.1c-2.9-3.3-4.8-7.5-5.2-12.1h2.9c0.4,3.8,2,7.3,4.4,10
			L164.9,285.1z M159.6,269.8c0.3-4.7,2.1-9,5-12.4l2.1,2.1c-2.3,2.9-3.8,6.4-4.1,10.3H159.6z"/>
		<g>
			<path class="st10" d="M145.3,175.7c65.3-16.9,107.9,22.9,118.9,34.8c1.1,1.1,0.1,2.9-1.4,2.8l-14.5-1.6
				c-9.8-7.6-26.6-16.9-26.6-16.9c-2.8-1.1-5.2-1.8-7.3-2.1c-5.8-0.9-11.4,2.1-13.9,7.4l-17.4,45.1c-0.6,1.3-2.2,1.9-3.5,1.2
				l-4.2-2.1c-1.2-0.6-1.8-2.1-1.3-3.4l15.8-47.2c0.3-2.9-0.6-4.9-1.8-6.2c-1.4-1.5-3.4-2.4-5.5-2.5c-9.1-0.5-18.9,0.6-23.4,1.3
				c-1.7,0.2-3.3-0.2-4.6-1.2l-9.6-7.1C144,177.3,144.3,176,145.3,175.7z"/>
			<g>
				<path class="st11" d="M174.3,240l2.8,1.4c1.3,0.6,2.9,0.1,3.5-1.2L198,195c2.5-5.2,8.2-8.2,13.9-7.4c2.1,0.3,4.5,1,7.4,2.1
					c0,0,16.8,9.3,26.6,16.9l14.5,1.6c0.5,0.1,1-0.1,1.3-0.4c1,1,1.8,1.9,2.5,2.6c1.1,1.1,0.1,2.9-1.4,2.8l-14.5-1.6
					c-9.8-7.6-26.6-16.9-26.6-16.9c-2.8-1.1-5.2-1.8-7.3-2.1c-5.8-0.9-11.4,2.1-13.9,7.4l-17.4,45.1c-0.6,1.3-2.2,1.9-3.5,1.2
					l-4.2-2.1c-1.2-0.6-1.8-2.1-1.3-3.4L174.3,240z"/>
			</g>
			<g>
				<path class="st12" d="M145.3,175.7c29.1-7.6,53.7-3.8,73,3.7c-17.9-5.5-39.7-7.4-64.8-0.9c-1.1,0.3-1.3,1.7-0.4,2.3l7.1,5.3
					c-0.4,0-0.8,0.1-1.1,0.1c-1.7,0.2-3.3-0.2-4.6-1.2l-9.6-7.1C144,177.3,144.3,176,145.3,175.7z"/>
			</g>
		</g>
		<g>
			<polygon class="st1" points="354.4,225 335.4,239.1 301.4,193.7 320.3,179.5 			"/>
			<path class="st13" d="M295.7,187.9l20.6-15.4c0.8-0.6,1.8-0.4,2.4,0.3l4.2,5.6c0.6,0.7,0.4,1.8-0.3,2.4l-20.6,15.4
				c-0.7,0.6-1.8,0.4-2.4-0.3l-4.2-5.6C294.8,189.6,294.9,188.5,295.7,187.9z"/>
			<path class="st13" d="M332,236l20.4-15.3c0.2-0.2,0.7-0.1,0.9,0.3l0.5,0.7c0.3,0.3,0.2,0.8,0,1l-20.4,15.3
				c-0.3,0.2-0.7,0.1-1-0.3L332,237C331.7,236.7,331.7,236.2,332,236z"/>
			<path class="st13" d="M329.5,232.6l20.4-15.3c0.3-0.2,0.7-0.1,1,0.3l0.5,0.7c0.3,0.3,0.2,0.8,0,1l-20.3,15.3
				c-0.3,0.2-0.7,0.1-1-0.3l-0.5-0.7C329.2,233.3,329.2,232.8,329.5,232.6z"/>
			<path class="st13" d="M326.9,229.3l20.4-15.2c0.3-0.2,0.7-0.1,0.9,0.2l0.5,0.7c0.3,0.4,0.3,0.8,0,1l-20.4,15.3
				c-0.3,0.2-0.7,0.1-0.9-0.3l-0.5-0.7C326.6,229.9,326.6,229.5,326.9,229.3z"/>
			<path class="st13" d="M324.4,225.9l20.4-15.3c0.3-0.2,0.7-0.1,1,0.3l0.5,0.7c0.3,0.3,0.3,0.8,0,1l-20.4,15.2
				c-0.3,0.2-0.7,0.1-0.9-0.3l-0.5-0.7C324.1,226.5,324.1,226.1,324.4,225.9z"/>
			<path class="st13" d="M321.9,222.5l20.4-15.2c0.3-0.2,0.7-0.1,0.9,0.3l0.5,0.7c0.3,0.3,0.2,0.8,0,1l-20.4,15.3
				c-0.3,0.2-0.7,0.1-1-0.3l-0.5-0.7C321.6,223.2,321.6,222.7,321.9,222.5z"/>
			<path class="st13" d="M319.3,219.1l20.4-15.3c0.3-0.2,0.7-0.1,1,0.3l0.5,0.7c0.3,0.3,0.2,0.8,0,1l-20.4,15.2
				c-0.3,0.2-0.7,0.1-1-0.3l-0.5-0.7C319,219.8,319.1,219.3,319.3,219.1z"/>
			<path class="st13" d="M316.8,215.8l20.4-15.3c0.3-0.2,0.7-0.1,1,0.3l0.5,0.7c0.3,0.3,0.3,0.8,0,1l-20.4,15.2
				c-0.3,0.2-0.7,0.1-1-0.2l-0.5-0.7C316.5,216.4,316.5,216,316.8,215.8z"/>
			<path class="st13" d="M314.3,212.4l20.4-15.3c0.2-0.2,0.7-0.1,0.9,0.3l0.5,0.7c0.3,0.3,0.3,0.8,0,1l-20.4,15.3
				c-0.3,0.2-0.7,0.1-1-0.3l-0.5-0.7C314,213,314,212.6,314.3,212.4z"/>
			<path class="st13" d="M311.8,209l20.4-15.3c0.3-0.2,0.7-0.1,1,0.3l0.5,0.7c0.3,0.3,0.2,0.8,0,1l-20.4,15.3
				c-0.3,0.2-0.7,0.1-1-0.3l-0.5-0.7C311.5,209.7,311.5,209.2,311.8,209z"/>
			<path class="st13" d="M309.2,205.6l20.3-15.2c0.3-0.2,0.7-0.1,1,0.2l0.5,0.7c0.3,0.3,0.2,0.8,0,1l-20.4,15.3
				c-0.3,0.2-0.7,0.1-1-0.3l-0.5-0.7C309,206.3,309,205.9,309.2,205.6z"/>
			<path class="st13" d="M306.7,202.3l20.4-15.3c0.3-0.2,0.7-0.1,1,0.3l0.5,0.7c0.3,0.3,0.3,0.8,0,1l-20.4,15.3
				c-0.3,0.2-0.7,0.1-1-0.3l-0.5-0.7C306.4,202.9,306.4,202.5,306.7,202.3z"/>
			<path class="st13" d="M304.2,198.9l20.4-15.3c0.3-0.2,0.7-0.1,1,0.3l0.5,0.7c0.3,0.3,0.3,0.8,0,1l-20.4,15.3
				c-0.3,0.2-0.7,0.1-0.9-0.3l-0.5-0.7C303.9,199.5,303.9,199.1,304.2,198.9z"/>
		</g>
		
			<rect x="521.8" y="164.1" transform="matrix(-1 -4.489754e-11 4.489754e-11 -1 1098.0527 337.2416)" class="st6" width="54.5" height="9"/>
		
			<rect x="356.6" y="194" transform="matrix(-1 -4.488466e-11 4.488466e-11 -1 759.2841 399.4467)" class="st6" width="46" height="11.5"/>
		
			<rect x="347" y="158.7" transform="matrix(-1 -4.489177e-11 4.489177e-11 -1 717.0537 407.5117)" class="st0" width="23.1" height="90.1"/>
		
			<rect x="285" y="84.7" transform="matrix(-1 -4.487489e-11 4.487489e-11 -1 600.4423 192.0912)" class="st0" width="30.5" height="22.7"/>
		<polygon class="st0" points="268.1,137 310.7,149.3 314.2,137.1 271.6,124.8 		"/>
		
			<rect x="377.6" y="158.7" transform="matrix(-1 -4.489932e-11 4.489932e-11 -1 778.2021 407.5117)" class="st0" width="23.1" height="90.1"/>
		<path class="st6" d="M391.6,209.3h107.4c2.2,0,4.1-1.5,4.6-3.6l7.6-30.7H391.6V209.3z"/>
		<path class="st6" d="M391.6,280.8h111.1v-61.3c0-2.3-1.9-4.2-4.2-4.2H391.6V280.8z"/>
		
			<rect x="257.4" y="111.5" transform="matrix(-1 -4.489310e-11 4.489310e-11 -1 562.5205 227.4234)" class="st7" width="47.6" height="4.5"/>
		
			<rect x="257.4" y="119.6" transform="matrix(-1 -4.489310e-11 4.489310e-11 -1 562.5205 243.7231)" class="st7" width="47.6" height="4.5"/>
		
			<rect x="323.2" y="181.3" transform="matrix(-1 -4.490109e-11 4.490109e-11 -1 704.2705 367.0946)" class="st7" width="57.9" height="4.5"/>
		<polygon class="st7" points="529.7,240.9 496.4,180.6 492.5,182.8 525.8,243.1 		"/>
		<g>
			<path class="st8" d="M611.2,271.1c0,23.3,19,42.2,42.2,42.2c23.3,0,42.2-18.9,42.2-42.2c0-23.3-19-42.2-42.2-42.2
				C630.2,228.9,611.2,247.8,611.2,271.1z M621.9,271.1c0-1.1,0.1-2.3,0.2-3.4c3,0.4,7.1,1.3,8.6-2.1c0.6-1.4-0.2-2.8-1.2-3.8
				c-1.4-1.3-3.3-2.2-5-3.1c4.5-10.5,14.6-18.1,26.5-19c0,0,0,0.1,0,0.1c0.4,3,0.4,7.7,4.2,8.3c1.5,0.2,2.7-0.8,3.4-2.1
				c0.9-1.7,1.3-3.8,1.8-5.6c10.2,2.3,18.5,9.5,22.3,18.9c-1.4,0.8-2.9,1.5-4,2.6c-1.1,1-1.8,2.4-1.2,3.8c1.2,3,4.5,2.7,7.3,2.3
				c0.1,1.1,0.2,2.1,0.2,3.2c0,8.1-3.1,15.6-8.2,21.2c-1.5-1.1-3-2.3-4.6-3c-1.3-0.6-2.9-0.6-4,0.5c-2.4,2.6-0.1,5.9,1.5,8.4
				c-4.8,2.9-10.3,4.5-16.3,4.5c-5.1,0-9.9-1.2-14.2-3.4c0.7-1.6,1.5-3.2,1.8-4.9c0.2-1.4,0-3-1.4-3.8c-3.1-1.8-5.8,1.3-8,3.4
				C625.7,288.3,621.9,280.2,621.9,271.1z"/>
			<g>
				<path class="st9" d="M611.2,271.1c0,23.3,19,42.2,42.2,42.2c23.3,0,42.2-18.9,42.2-42.2c0-23.3-19-42.2-42.2-42.2
					C630.2,228.9,611.2,247.8,611.2,271.1z M614.4,271.1c0-21.5,17.5-39.1,39.1-39.1c21.5,0,39.1,17.5,39.1,39.1
					c0,21.5-17.5,39.1-39.1,39.1C631.9,310.2,614.4,292.7,614.4,271.1z"/>
			</g>
		</g>
		<path class="st6" d="M627,271.1c0,14.6,11.9,26.5,26.5,26.5c14.6,0,26.5-11.9,26.5-26.5c0-14.6-11.9-26.5-26.5-26.5
			C638.9,244.6,627,256.5,627,271.1z M647.3,263.2c1.4-1.1,3.1-1.8,4.9-2v2.7c-1.1,0.2-2.1,0.6-3,1.3L647.3,263.2z M654.9,261.2
			c1.8,0.3,3.5,1,4.8,2.1l-1.9,1.9c-0.9-0.6-1.9-1.1-2.9-1.3V261.2z M661.6,265.3c1,1.4,1.7,3,1.9,4.8h-2.7c-0.2-1-0.5-2-1.1-2.9
			L661.6,265.3z M663.4,272.7c-0.3,1.7-1,3.3-2,4.6l-1.9-1.9c0.5-0.8,1-1.7,1.2-2.7H663.4z M659.5,279.2c-1.3,1-2.9,1.6-4.5,1.9
			v-2.7c0.9-0.2,1.9-0.6,2.6-1.1L659.5,279.2z M652.2,281.1c-1.7-0.2-3.3-0.9-4.6-1.8l1.9-1.9c0.8,0.5,1.7,0.9,2.7,1.1V281.1z
			 M645.6,277.4c-1.1-1.3-1.8-2.9-2.1-4.7h2.7c0.2,1,0.7,2,1.3,2.8L645.6,277.4z M643.5,270.1c0.2-1.8,0.9-3.5,1.9-4.9l1.9,1.9
			c-0.6,0.9-1,1.9-1.2,3H643.5z M642,257.9c2.8-2.4,6.4-4,10.3-4.3v2.4c-3.2,0.3-6.2,1.6-8.6,3.6L642,257.9z M654.9,253.7
			c3.9,0.3,7.4,1.9,10.2,4.3l-1.7,1.7c-2.3-2-5.2-3.3-8.5-3.6V253.7z M666.9,259.9c2.3,2.8,3.8,6.3,4,10.1h-2.4
			c-0.2-3.2-1.4-6.1-3.3-8.4L666.9,259.9z M670.9,272.7c-0.3,3.8-1.9,7.2-4.2,9.9l-1.7-1.7c1.9-2.3,3.2-5.1,3.5-8.2H670.9z
			 M664.8,284.5c-2.7,2.3-6.1,3.8-9.9,4.1v-2.4c3.1-0.3,5.9-1.5,8.2-3.4L664.8,284.5z M652.2,288.6c-3.8-0.3-7.2-1.7-10-4l1.7-1.7
			c2.3,1.9,5.2,3.1,8.3,3.3V288.6z M640.3,282.7c-2.4-2.7-4-6.2-4.3-10h2.4c0.3,3.2,1.6,6,3.6,8.3L640.3,282.7z M636,270.1
			c0.2-3.9,1.7-7.4,4.1-10.2l1.7,1.7c-2,2.4-3.2,5.3-3.4,8.6H636z"/>
		<g>
			<polygon class="st0" points="534.6,262.8 550.3,260.4 534.9,155.5 519.1,157.8 			"/>
			<path class="st2" d="M522.2,188.8l18.5-2.7c1.2-0.2,2.2,0.6,2.4,1.8l0.2,1.1c0.2,1.2-0.6,2.2-1.8,2.4l-18.5,2.7
				c-1.2,0.2-2.2-0.6-2.4-1.8l-0.2-1.1C520.3,190.1,521.1,189,522.2,188.8z"/>
			<path class="st2" d="M523.7,198.4l18.5-2.7c1.2-0.2,2.2,0.6,2.4,1.8l0.2,1.1c0.2,1.2-0.6,2.2-1.8,2.4l-18.5,2.7
				c-1.1,0.2-2.2-0.6-2.4-1.8l-0.2-1.1C521.7,199.7,522.5,198.6,523.7,198.4z"/>
			<path class="st2" d="M525.1,208.1l18.5-2.7c1.1-0.2,2.2,0.6,2.4,1.8l0.2,1.1c0.2,1.2-0.6,2.2-1.8,2.4l-18.5,2.7
				c-1.2,0.2-2.2-0.6-2.4-1.8l-0.2-1.1C523.1,209.3,523.9,208.2,525.1,208.1z"/>
			<path class="st2" d="M526.5,217.7l18.5-2.7c1.2-0.2,2.2,0.6,2.4,1.8l0.2,1.1c0.2,1.2-0.6,2.2-1.8,2.4l-18.5,2.7
				c-1.2,0.2-2.2-0.6-2.4-1.8l-0.2-1.1C524.5,218.9,525.3,217.8,526.5,217.7z"/>
			<path class="st2" d="M527.9,227.3l18.5-2.7c1.2-0.2,2.2,0.6,2.4,1.8l0.2,1.1c0.2,1.2-0.6,2.2-1.8,2.4l-18.5,2.7
				c-1.2,0.2-2.2-0.6-2.4-1.8l-0.2-1.1C525.9,228.5,526.7,227.4,527.9,227.3z"/>
			<path class="st2" d="M529.3,236.9l18.5-2.7c1.2-0.2,2.2,0.6,2.4,1.8l0.2,1.1c0.2,1.1-0.6,2.2-1.8,2.4l-18.6,2.7
				c-1.1,0.2-2.2-0.6-2.4-1.8l-0.2-1.1C527.4,238.1,528.2,237,529.3,236.9z"/>
			<path class="st2" d="M530.7,246.5l18.5-2.7c1.2-0.2,2.2,0.6,2.4,1.8l0.2,1.1c0.2,1.2-0.6,2.2-1.8,2.4l-18.5,2.7
				c-1.1,0.2-2.2-0.6-2.4-1.8l-0.2-1.1C528.8,247.7,529.6,246.6,530.7,246.5z"/>
		</g>
		<g>
			<path class="st1" d="M232.4,63.5v61.4c0,0,38.2-2.6,38.2-35.1C270.6,89.7,271.9,64.5,232.4,63.5z"/>
			<path class="st13" d="M232.4,63.5c0,0-8.6,3.5-9.9,8.3v45.4c0,0,2.5,6.4,9.9,7.7V63.5z"/>
			<path class="st14" d="M232.4,71.8v44.8c0,0,38.2-1.9,38.2-25.6C270.6,90.9,271.9,72.5,232.4,71.8z"/>
			<polygon class="st15" points="232.4,82.9 222.5,82.9 222.5,75.3 232.4,71.5 			"/>
			<rect x="222.5" y="99.9" class="st15" width="9.9" height="4.3"/>
			<polygon class="st15" points="232.4,118 222.5,114.2 222.5,106.7 232.4,106.7 			"/>
			<path class="st1" d="M232.4,84.7v18.9c0,0,38.2-0.8,38.2-10.8C270.6,92.8,271.9,85,232.4,84.7z"/>
		</g>
		<path class="st0" d="M521.1,243.5L525,260h8.5v21.2l-32.2,2.8l-25,3.9c-1.6,0.3-3.1-0.9-3.4-2.5l-5.7-41.8H521.1z"/>
		<polygon class="st0" points="464.8,260.3 470,293.1 390,293.1 383.2,260.3 		"/>
		<polygon class="st1" points="376.6,296.2 495.3,270 493.3,260.9 374.6,287.1 		"/>
		<polygon class="st16" points="530.7,164.1 424,200.1 402.1,196.5 352,161.7 		"/>
		<polygon class="st17" points="352,161.7 530.7,164.1 529.9,164.4 374.2,177.2 		"/>
		<g>
			
				<rect x="336" y="226.8" transform="matrix(-0.9857 0.1682 -0.1682 -0.9857 763.6323 469.5582)" class="st1" width="51.9" height="80.6"/>
			<path class="st13" d="M340,305.1l55.2-9.4c0.7-0.1,1.4,0.3,1.5,0.9l0.2,1.2c0.1,0.6-0.4,1.2-1.1,1.3l-55.1,9.4
				c-0.7,0.1-1.4-0.3-1.5-0.9l-0.2-1.2C338.8,305.9,339.3,305.3,340,305.1z"/>
			<path class="st13" d="M339,299.2l55.1-9.4c0.8-0.1,1.4,0.3,1.5,0.9l0.2,1.2c0.1,0.6-0.4,1.2-1.1,1.3l-55.1,9.4
				c-0.7,0.1-1.4-0.2-1.5-0.9l-0.2-1.2C337.8,300,338.3,299.4,339,299.2z"/>
			<path class="st13" d="M338,293.3l55.2-9.4c0.7-0.1,1.4,0.3,1.5,0.9l0.2,1.2c0.1,0.6-0.4,1.2-1.1,1.3l-55.2,9.4
				c-0.7,0.1-1.4-0.3-1.5-0.9l-0.2-1.2C336.8,294.1,337.3,293.5,338,293.3z"/>
			<path class="st13" d="M337,287.4l55.1-9.4c0.8-0.1,1.4,0.3,1.5,0.9l0.2,1.2c0.1,0.6-0.4,1.2-1.1,1.3l-55.1,9.4
				c-0.8,0.1-1.4-0.3-1.5-0.9l-0.2-1.2C335.8,288.2,336.3,287.6,337,287.4z"/>
			<path class="st13" d="M336,281.5l55.1-9.4c0.7-0.1,1.4,0.3,1.5,0.9l0.2,1.2c0.1,0.6-0.4,1.2-1.1,1.3l-55.2,9.4
				c-0.7,0.1-1.4-0.3-1.5-0.9l-0.2-1.2C334.8,282.3,335.3,281.7,336,281.5z"/>
			<path class="st13" d="M335,275.6l55.2-9.4c0.7-0.1,1.4,0.3,1.5,0.9l0.2,1.2c0.1,0.6-0.4,1.2-1.1,1.3l-55.2,9.4
				c-0.7,0.1-1.4-0.3-1.5-0.9l-0.2-1.2C333.8,276.4,334.3,275.8,335,275.6z"/>
			<path class="st13" d="M334,269.7l55.2-9.4c0.7-0.1,1.4,0.3,1.5,0.9l0.2,1.2c0.1,0.6-0.4,1.2-1.1,1.3l-55.2,9.4
				c-0.7,0.1-1.4-0.3-1.5-0.9l-0.2-1.2C332.7,270.5,333.3,269.9,334,269.7z"/>
			<path class="st13" d="M333,263.8l55.2-9.4c0.7-0.1,1.4,0.3,1.5,0.9l0.2,1.2c0.1,0.6-0.4,1.2-1.1,1.3l-55.2,9.4
				c-0.7,0.1-1.4-0.3-1.5-0.9l-0.2-1.2C331.7,264.6,332.3,264,333,263.8z"/>
			<path class="st13" d="M332,258l55.1-9.4c0.7-0.1,1.4,0.2,1.5,0.9l0.2,1.2c0.1,0.6-0.4,1.2-1.1,1.3l-55.2,9.4
				c-0.7,0.1-1.4-0.3-1.5-0.9l-0.2-1.2C330.7,258.7,331.3,258.1,332,258z"/>
			<path class="st13" d="M331,252.1l55.1-9.4c0.7-0.1,1.4,0.3,1.5,0.9l0.2,1.2c0.1,0.6-0.4,1.2-1.1,1.3l-55.2,9.4
				c-0.7,0.1-1.4-0.3-1.5-0.9l-0.2-1.2C329.7,252.8,330.2,252.2,331,252.1z"/>
			<path class="st13" d="M330,246.2l55.1-9.4c0.7-0.1,1.4,0.3,1.5,0.9l0.2,1.2c0.1,0.6-0.4,1.2-1.1,1.3l-55.1,9.4
				c-0.7,0.1-1.4-0.3-1.5-0.9l-0.2-1.2C328.7,246.9,329.2,246.3,330,246.2z"/>
			<path class="st13" d="M329,240.3l55.2-9.4c0.7-0.1,1.4,0.3,1.5,0.9l0.2,1.2c0.1,0.6-0.4,1.2-1.2,1.3l-55.1,9.4
				c-0.7,0.1-1.4-0.3-1.5-0.9l-0.2-1.2C327.7,241,328.2,240.4,329,240.3z"/>
		</g>
		<polygon class="st1" points="294.8,85.3 321.1,92.2 323.5,83.2 297.2,76.3 		"/>
		<polygon class="st1" points="277.7,109.3 332.1,164.1 338.7,157.6 284.3,102.7 		"/>
		<polygon class="st1" points="341.7,163.6 490.7,266.2 495.9,258.5 346.9,156 		"/>
		<polygon class="st1" points="493.2,270.8 542,159.5 533.4,155.7 484.7,267.1 		"/>
		<polygon class="st1" points="411.3,210.5 536.5,169.1 533.6,160.2 408.3,201.6 		"/>
		<polygon class="st1" points="296,164.1 530.7,164.1 530.7,154.8 296,154.8 		"/>
		<polygon class="st18" points="296,164.1 530.7,164.1 530.7,159.5 296,159.5 		"/>
		<path class="st1" d="M680.3,144.5l0.3,4.8c0.2,2.5-1.7,4.6-4.2,4.8L541.9,163l-0.6-9.3L680.3,144.5z"/>
		<polygon class="st1" points="261,134.6 337,202 343.2,195.1 267.2,127.7 		"/>
		<polygon class="st0" points="259,139.1 338,209.2 340.1,206.9 261.1,136.8 		"/>
		<polygon class="st1" points="329.9,158.6 342.3,200.2 351.2,197.5 338.8,156 		"/>
		<polygon class="st1" points="264.7,106 279,112.8 283.2,103.8 268.9,97 		"/>
		<path class="st1" d="M255.7,47.2l6.7-14.1c0.8-1.6,2.7-2.3,4.3-1.5l23.3,11c1.6,0.8,2.3,2.7,1.6,4.3L284.8,61
			c-0.7,1.6-2.7,2.3-4.3,1.6l-23.3-11C255.6,50.7,254.9,48.8,255.7,47.2z"/>
		<polygon class="st13" points="260.3,34.2 291.9,49.1 294.1,44.5 262.5,29.6 		"/>
		<polygon class="st1" points="253.6,128.5 271.1,136.8 276.9,124.5 259.4,116.2 		"/>
		<polygon class="st1" points="280.5,74.9 295.6,81.9 299.2,74.3 284.1,67.2 		"/>
		<polygon class="st0" points="275,82.7 289.3,89.4 293.9,79.6 279.7,72.9 		"/>
		<polygon class="st1" points="228.5,181.6 238.5,186.4 263.6,133.2 253.6,128.5 		"/>
		<polygon class="st13" points="272.4,56.2 288.9,63.9 294,53 277.6,45.3 		"/>
		<polygon class="st0" points="273.8,60.3 284.9,65.5 286.2,62.7 275.1,57.4 		"/>
		<path class="st2" d="M217.3,168.8l4.7-9.8c0.1-0.3,0.5-0.4,0.8-0.3l18.6,8.8c0.3,0.2,0.4,0.5,0.3,0.8l-4.6,9.8
			c-0.2,0.3-0.5,0.4-0.8,0.3l-18.6-8.8C217.3,169.4,217.1,169.1,217.3,168.8z"/>
		<polygon class="st2" points="210.2,192.9 222.9,198.9 198.8,249.8 186.1,243.8 		"/>
		<polygon class="st17" points="216.4,195.8 222.9,198.9 198.8,249.8 192.3,246.7 		"/>
		<polygon class="st13" points="218.9,170.2 234.8,177.7 224.5,199.6 208.5,192.1 		"/>
		<path class="st13" d="M176.7,280.6l-0.2-0.1c-4.3-2-6.2-7.2-4.1-11.5l12.2-25.9l16,7.5l-12.2,25.9
			C186.2,280.8,181,282.6,176.7,280.6z"/>
		<path class="st1" d="M521,159.5c0,6.9,5.6,12.5,12.5,12.5c6.9,0,12.5-5.6,12.5-12.5c0-6.9-5.6-12.5-12.5-12.5
			C526.6,147,521,152.6,521,159.5z"/>
		<path class="st18" d="M524.5,159.5c0,5,4,9,9,9c5,0,9-4,9-9c0-5-4-9-9-9C528.6,150.4,524.5,154.5,524.5,159.5z"/>
		<path class="st1" d="M336.1,204.3c0,6.2,5,11.2,11.2,11.2c6.2,0,11.2-5,11.2-11.2c0-6.2-5-11.2-11.2-11.2
			C341.1,193,336.1,198.1,336.1,204.3z"/>
		<g>
			<path class="st13" d="M404.6,187.8h5.8c1.4,0,2.5,1.1,2.5,2.5V210c0,1.4-1.1,2.6-2.5,2.6h-5.8c-1.4,0-2.6-1.1-2.6-2.6v-19.7
				C402.1,188.9,403.2,187.8,404.6,187.8z"/>
			<path class="st13" d="M421.1,187.8h5.8c1.4,0,2.6,1.1,2.6,2.5V210c0,1.4-1.1,2.6-2.6,2.6h-5.8c-1.4,0-2.6-1.1-2.6-2.6v-19.7
				C418.5,188.9,419.7,187.8,421.1,187.8z"/>
		</g>
		<polygon class="st13" points="459.9,230.5 419.1,240 413.5,215.9 454.2,206.3 		"/>
		<polygon class="st18" points="456.8,217.5 416.1,227 414.4,220 455.2,210.5 		"/>
		<polygon class="st18" points="459.9,230.5 419.1,240 417.5,233 458.2,223.5 		"/>
		
			<rect x="413" y="191.4" transform="matrix(-1 -4.485535e-11 4.485535e-11 -1 831.5185 403.9232)" class="st1" width="5.6" height="21.2"/>
		<g>
			<path class="st13" d="M438.7,253.9h23c0.9,0,1.6,0.7,1.6,1.6v9.7c0,0.9-0.7,1.6-1.6,1.6h-23c-0.9,0-1.6-0.7-1.6-1.6v-9.7
				C437.2,254.6,437.8,253.9,438.7,253.9z"/>
			<path class="st13" d="M420.4,253.9h12.6c0.9,0,1.6,0.7,1.6,1.6v9.7c0,0.9-0.7,1.6-1.6,1.6h-12.6c-0.9,0-1.6-0.7-1.6-1.6v-9.7
				C418.8,254.6,419.5,253.9,420.4,253.9z"/>
		</g>
		<path class="st0" d="M521,184.1l-1.8-1.5c-1.2-1-2.8-1.5-4.4-1.4l-21.7,2.2l32.9-10.9L521,184.1z"/>
		<polygon class="st19" points="460.2,232.5 493.9,222.3 488.4,198.5 453.7,204.5 		"/>
		<polygon class="st13" points="225.7,160.1 238.4,166.1 285.7,65.9 273,59.9 		"/>
		
			<rect x="249" y="56.1" transform="matrix(-0.9044 -0.4267 0.4267 -0.9044 433.2688 320.0376)" class="st20" width="7" height="110.8"/>
		
			<rect x="205.4" y="178.8" transform="matrix(0.4265 -0.9045 0.9045 0.4265 -40.7277 301.6537)" class="st20" width="24.2" height="8.3"/>
		
			<rect x="526.2" y="260" transform="matrix(-1 -4.489443e-11 4.489443e-11 -1 1198.4658 541.2695)" class="st0" width="146" height="21.2"/>
		
			<rect x="526.2" y="264.7" transform="matrix(-1 -4.489443e-11 4.489443e-11 -1 1198.4658 541.3333)" class="st1" width="146" height="11.8"/>
		<polygon class="st0" points="500.1,255.1 640.2,255.1 640.2,235.8 508.5,235.8 		"/>
		<polygon class="st0" points="637.4,254.5 652.2,260 672.2,260 640.2,247.7 		"/>
		<polygon class="st13" points="174.4,277.5 213.8,288.1 215,283.6 175.6,273 		"/>
		
			<rect x="181.5" y="251.3" transform="matrix(-0.9578 0.2875 -0.2875 -0.9578 458.3511 439.9779)" class="st13" width="30.8" height="4.7"/>
		<path class="st7" d="M225.8,208.2l40.7-87.4l2.8,1.3l-40.7,87.5c-1.9,4-2.8,8.4-2.8,12.9V247h-3.1v-24.6
			C222.6,217.5,223.7,212.6,225.8,208.2z"/>
		<polygon class="st13" points="261.8,128.1 273.2,133.5 301.6,73.3 290.2,67.9 		"/>
		<polygon class="st17" points="267.5,130.8 273.2,133.5 301.6,73.3 295.9,70.6 		"/>
		<polygon class="st21" points="459.7,230.4 493.5,220.5 488.8,200.3 454.2,206.6 		"/>
		<polygon class="st19" points="459.2,228.3 493.1,218.7 489.2,202.1 454.7,208.7 		"/>
		<polygon class="st21" points="458.7,226.3 492.7,217.1 489.6,203.8 455.1,210.7 		"/>
		<polygon class="st19" points="458.2,224 492.2,215.2 490.1,205.8 455.6,212.9 		"/>
		<polygon class="st21" points="457.7,221.9 491.8,213.5 490.5,207.6 456.1,215 		"/>
		<polygon class="st19" points="457.3,219.9 491.4,211.7 490.9,209.3 456.6,217 		"/>
		<polygon class="st22" points="468.1,230.1 465.8,230.8 459.6,203.5 461.9,203.1 		"/>
		<polygon class="st22" points="490.3,223.3 488,224 482.4,199.5 484.8,199.1 		"/>
		<g>
			<path class="st10" d="M299.1,94.5c2.1-11.7,12.5-13.5,12.5-13.5c16.1-2,51.2-3.1,51.2-3.1c85.2,2.5,117.8,43.5,122.4,50.8
				c0.4,0.6,0.6,1.2,0.8,1.8l5.5,20.3c0.8,4-7.1,4-7.1,4H309.1c-13.9,0-14.5-13.3-14.5-13.3L299.1,94.5z"/>
			<path class="st23" d="M309.1,154.9c-8.7,0-12.2-5.2-13.6-9.2c-0.7-1.9-0.9-4-0.7-6.1l1.9-20.1l22.2,35.3H309.1z"/>
			<path class="st12" d="M364.3,87.1c0,0-36.5,1.1-53.3,3.1c0,0-10,1.7-12.6,12.2l0.7-7.9c2.1-11.7,12.5-13.5,12.5-13.5
				c16.1-2,51.2-3.1,51.2-3.1c85.2,2.5,117.8,43.5,122.4,50.8c0.4,0.6,0.6,1.2,0.8,1.8l0.1,0.5C472.9,117.1,437,89.2,364.3,87.1z"/>
			<path class="st23" d="M299.6,151.3h191.9c0,3.5-7.1,3.6-7.1,3.6H309.1c-4.4,0-7.4-1.3-9.6-3.1V151.3z"/>
			<path class="st17" d="M485.2,128.7c0.4,0.6,0.6,1.2,0.8,1.8l5.5,20.3c0.8,4-7.1,4-7.1,4H309.1c-13.9,0-14.5-13.3-14.5-13.3
				l1.9-20.5h182.6C482.3,124.6,484.3,127.3,485.2,128.7z"/>
			<path class="st11" d="M475.8,147c0,0,6.4-2.7,1.1-10.3c0,0-27.9-37.2-84.3-41.3c0,0-11.2-0.5-11.6,9.7c0,0-0.8,19.2,8.5,28.9
				c0,0,4.5,6.2,18.2,8C407.6,142,450.4,147,475.8,147z"/>
			<path class="st23" d="M381,105c0.4-10.2,11.6-9.7,11.6-9.7c48.5,3.5,75.9,31.5,82.6,39.3c-9.8-10.3-36.4-33.1-79.9-36.3
				c0,0-11.2-0.5-11.6,9.7c0,0-0.8,17.3,7.2,27.4c-0.9-0.8-1.4-1.4-1.4-1.4C380.1,124.2,381,105,381,105z"/>
		</g>
		<path class="st24" d="M176.2,240.4c0,1.7,1.3,3,3,3c1.7,0,3-1.4,3-3c0-1.7-1.4-3-3-3C177.5,237.4,176.2,238.8,176.2,240.4z"/>
		<path class="st2" d="M174.2,272c0,3.5,2.8,6.3,6.3,6.3c3.5,0,6.3-2.8,6.3-6.3c0-3.5-2.8-6.3-6.3-6.3
			C177,265.7,174.2,268.5,174.2,272z"/>
		<path class="st8" d="M175.9,272c0,2.5,2,4.5,4.5,4.5c2.5,0,4.5-2,4.5-4.5c0-2.5-2-4.5-4.5-4.5C178,267.5,175.9,269.5,175.9,272z"
			/>
		<path class="st2" d="M648.3,270.7c0,2.8,2.3,5.1,5.1,5.1c2.8,0,5-2.3,5-5.1c0-2.8-2.3-5.1-5-5.1
			C650.6,265.6,648.3,267.9,648.3,270.7z"/>
		<path class="st8" d="M649.7,270.7c0,2,1.6,3.7,3.7,3.7c2,0,3.6-1.6,3.6-3.7c0-2-1.6-3.6-3.6-3.6
			C651.4,267,649.7,268.7,649.7,270.7z"/>
		<g>
			<polygon class="st25" points="206.4,246.8 215.2,288.4 234,284.4 225.3,242.9 			"/>
			<g>
				<path class="st25" d="M213.2,254.2l-8.3,1.7c-0.6,0.1-1.2-0.3-1.4-0.9l-1.3-6.1c-0.1-0.6,0.3-1.3,0.9-1.4l8.3-1.7L213.2,254.2z"
					/>
				<path class="st25" d="M208,270.5c-0.7,0.1-1.3-0.3-1.4-0.9l-1.3-6.1c-0.1-0.6,0.3-1.3,0.9-1.4l8.3-1.7l1.8,8.4L208,270.5z"/>
				<path class="st25" d="M211.9,289.1c-0.6,0.1-1.3-0.3-1.4-0.9l-1.3-6.1c-0.1-0.7,0.3-1.3,0.9-1.4l8.3-1.7l1.8,8.4L211.9,289.1z"
					/>
			</g>
			<g>
				<path class="st26" d="M229,242l3,14.1c0.2,0.8-0.3,1.5-1.1,1.7l-13.1,2.8c-0.8,0.2-1.6-0.3-1.7-1.1l-3-14.1
					c-0.2-0.8,0.3-1.5,1.1-1.7l13.1-2.8C228,240.7,228.8,241.2,229,242z"/>
				<path class="st26" d="M231.8,265.2l4.1,19.4c0.2,0.8-0.3,1.6-1.1,1.7l-11.1,2.3c-0.8,0.2-1.5-0.3-1.7-1.1l-4.1-19.4
					c-0.2-0.8,0.3-1.5,1.1-1.7l11.1-2.4C230.9,263.9,231.6,264.4,231.8,265.2z"/>
			</g>
		</g>
		<g>
			
				<rect x="622" y="221.5" transform="matrix(-0.9884 0.1517 -0.1517 -0.9884 1310.9971 360.9521)" class="st25" width="39.4" height="17.8"/>
			<g>
				<path class="st25" d="M630.8,236.4l1.2,7.7c0.1,0.6-0.3,1.2-0.9,1.2l-5.7,0.9c-0.6,0.1-1.2-0.3-1.3-0.9l-1.2-7.7L630.8,236.4z"
					/>
				<path class="st25" d="M645.6,242c0.1,0.6-0.3,1.2-0.9,1.3l-5.7,0.9c-0.6,0.1-1.2-0.3-1.3-0.9l-1.2-7.7l7.9-1.2L645.6,242z"/>
				<path class="st25" d="M663,239.4c0.1,0.6-0.3,1.2-0.9,1.3l-5.7,0.9c-0.6,0.1-1.2-0.3-1.3-0.9l-1.2-7.7l7.9-1.2L663,239.4z"/>
			</g>
			<g>
				<path class="st26" d="M620.3,221.2l13.2-2c0.7-0.1,1.4,0.4,1.5,1.1l1.9,12.3c0.1,0.7-0.4,1.4-1.1,1.5l-13.2,2
					c-0.7,0.1-1.4-0.4-1.5-1.1l-1.9-12.3C619.1,222,619.6,221.3,620.3,221.2z"/>
				<path class="st26" d="M641.9,219.8l18.2-2.8c0.7-0.1,1.4,0.4,1.5,1.1l1.6,10.4c0.1,0.7-0.4,1.4-1.1,1.5l-18.2,2.8
					c-0.7,0.1-1.4-0.4-1.5-1.1l-1.6-10.4C640.7,220.6,641.2,219.9,641.9,219.8z"/>
			</g>
		</g>
		<polygon class="st1" points="504.7,265 590.8,158.6 583.6,152.8 497.5,259.2 		"/>
		<polygon class="st27" points="501.1,262.1 583.6,160.2 577.2,160.6 497.5,259.2 		"/>
		<path class="st1" d="M482.8,262.5c0,6.9,5.6,12.5,12.5,12.5c6.9,0,12.5-5.6,12.5-12.5c0-6.9-5.6-12.5-12.5-12.5
			C488.4,250,482.8,255.6,482.8,262.5z"/>
		<path class="st5" d="M180.7,356.3c-15,0-29.6-3.9-42.5-11.4l1.8-1.8c12.3,7,26.4,10.7,40.7,10.7c45.6,0,82.7-37.1,82.7-82.7
			c0-14.3-3.7-28.4-10.7-40.8l1.8-1.8c7.4,12.9,11.4,27.6,11.4,42.5C265.9,318.1,227.7,356.3,180.7,356.3z"/>
		<g>
			<path class="st28" d="M297.3,58c0,0-6.1-2.8-11.5-2c0,0-5.8,1-7.2,6.8c0,0-1.4,7.1,3.3,11.6l0.2,6.9c0,0.5,0.2,1,0.5,1.4
				c0.7,0.8,1.9,2.2,3.6,3.8l16.2,14.4c1.4,1.2,1.7,2.5,1.7,4.4c0,0.8,0,1.6-0.1,2.2c-0.1,0.6,0.6,1.6,1,2c0.4,0.4,1,0.7,1.8-0.1
				c0,0,3-5,0.1-8.9l-16-14.1c0,0-4.7-5.7-3-9.1L297.3,58z"/>
			<path class="st29" d="M284.1,69.3c0,6.7,5.4,12.2,12.1,12.2c6.7,0,12.2-5.4,12.2-12.1c0-6.7-5.4-12.2-12.1-12.2
				C289.6,57.1,284.1,62.6,284.1,69.3z"/>
			<path class="st13" d="M285.9,69.3c0,5.7,4.6,10.4,10.3,10.4c5.7,0,10.4-4.6,10.4-10.3c0-5.7-4.6-10.4-10.3-10.4
				C290.6,59,285.9,63.6,285.9,69.3z M288.1,69.3c0-4.5,3.7-8.1,8.2-8.1c4.5,0,8.1,3.7,8.1,8.1c0,4.5-3.7,8.1-8.2,8.1
				C291.7,77.4,288.1,73.8,288.1,69.3z"/>
			<path class="st28" d="M327.4,86.1l-28.1-20.9c0,0-4.6-1.6-6.7,2.4c0,0-1.7,3.2-0.5,5.8l25.1,23.5L327.4,86.1z"/>
			<path class="st29" d="M314.6,91.2c0,4.1,3.3,7.5,7.4,7.5c4.1,0,7.5-3.3,7.5-7.4c0-4.1-3.3-7.5-7.4-7.5
				C317.9,83.8,314.6,87.1,314.6,91.2z"/>
			<path class="st13" d="M316.4,91.2c0,3.1,2.5,5.6,5.6,5.6c3.1,0,5.6-2.5,5.6-5.6c0-3.1-2.5-5.6-5.6-5.6
				C319,85.6,316.4,88.1,316.4,91.2z M318.2,91.2c0-2.1,1.8-3.8,3.9-3.8c2.1,0,3.8,1.7,3.8,3.9c0,2.1-1.7,3.8-3.9,3.8
				C319.9,95.1,318.2,93.3,318.2,91.2z"/>
			<path class="st13" d="M322,89.3c1,0,1.9,0.9,1.9,1.9c0,1-0.8,1.9-1.9,1.9c-1,0-1.9-0.9-1.9-1.9C320.1,90.2,321,89.3,322,89.3z"/>
		</g>
		<path class="st30" d="M495.1,130.6L495.1,130.6c9.9-2.8,17.4-0.3,17.4-0.2l0,0c8-2.8,17.2-0.7,17.2-0.7c0,0,0,0,0,0
			c7.6-2.8,16.4-1.1,16.4-1.1l0,0c9-3.1,15.9-1.7,16-1.7l0,0c6.2-3.8,16.7-2.7,16.7-2.7l0,0c7.6-4.2,16.2-4.4,16.2-4.4l7.5-7.1
			c2.5-2.4,6.1-3.6,9.6-3.2c14.4,1.6,52.3,8.3,68.1,35.1L524,154.8h-31.6l-6.4-24.2C489.7,129.4,495.1,130.6,495.1,130.6z"/>
		<path class="st31" d="M609.4,112.4l-8,8.9c0,0-9.2,0.3-17.3,5.5l0,0c0,0-11.2-1.3-17.8,3.4c0,0,0,0,0,0c-0.1,0-7.4-1.8-17,2.1l0,0
			c-0.1,0-9.4-2.1-17.5,1.4l0,0c0,0-9.8-2.6-18.3,0.8l0,0c-0.1,0-8-3.2-18.5,0.3l0,0c0,0-4.2-1.1-7.9-0.5l-1-3.7
			c3.8-1.2,9.1,0,9.2,0.1l0,0c9.9-2.8,17.4-0.3,17.4-0.2l0,0c8-2.8,17.2-0.7,17.2-0.7l0,0c7.6-2.8,16.4-1.1,16.5-1.1l0,0
			c9-3.1,15.9-1.7,16-1.7l0,0c6.2-3.8,16.7-2.7,16.8-2.7l0,0c7.6-4.2,16.2-4.4,16.2-4.4l7.5-7.1c2.6-2.4,6.1-3.6,9.6-3.2
			c0.3,0,0.6,0.1,0.9,0.1C611.8,110.1,610.5,111.1,609.4,112.4z"/>
		<path class="st32" d="M492.4,154.8l-1.6-5.9c61,0.8,155.5-10.4,182.4-13.8c2.6,2.8,5,5.9,7.1,9.3L524,154.8H492.4z"/>
		<polygon class="st15" points="264.9,36.4 268.2,37.9 270.4,33.3 267.1,31.7 		"/>
		<polygon class="st15" points="269.8,38.7 272.3,39.8 274.5,35.2 272,34 		"/>
		
			<rect x="285.3" y="41.7" transform="matrix(-0.9031 -0.4294 0.4294 -0.9031 528.3162 207.6832)" class="st15" width="4.6" height="5.1"/>
		<g>
			<path class="st2" d="M484,279l32.4,15.3l1-2.2l12-13.9l8.7,1.9l3-2.3v-3l-23.8-6.7l-14.2,3.9v3.4l-18.5-1.5
				C479.8,275.3,484,279,484,279z M492.3,278.8l19.3,2.3l-1.8,5.9L492.3,278.8z"/>
		</g>
		<path class="st8" d="M302,247.8c0.6-9.6,6.8-18.8,13-22.3c3.9-2.2,10.2-3.5,14.6-3.8l13.9-0.8l-2.6,12.5
			c-7.2-0.4-15.5,1.7-15.5,1.7c-4.3,2.2-6.8,5.5-8.3,9c-3.1,7.2-1.6,15.7,3.5,21.6l26.7,33.2c11.7,15.1,33.3,11.6,33.3,11.6
			l116.6-12.6c20.6-1.7,32.3-13,32.3-13L566,247c6.5-6.4,10.4-8.6,14.1-9.4c3.6-0.8,8.3,0.3,9.7,3.7c3.5,8.7-7.8,18.5-7.8,18.5
			l-34.3,32.8c-14.6,17.2-33.8,18.6-33.8,18.6s-107,14.2-130.2,15.8c-17,1.2-29.9-5.1-35.5-8.5c-1.9-1.2-3.6-2.7-5.1-4.4l-25.7-31.5
			C300.7,262.4,302,247.8,302,247.8z"/>
		<g>
			<path class="st33" d="M587.1,239.2c-3.6,0.9-7.6,3-14,9.4l-36.5,37.8c0,0-11.7,11.2-32.3,13l-116.6,12.6c0,0-9.2,1.5-18.9-1.7
				c6.7,0.9,11.8,0,11.8,0l116.6-12.6c20.6-1.7,32.3-13,32.3-13L566,247c6.5-6.4,10.4-8.6,14.1-9.4c2.6-0.6,5.9-0.2,8,1.4
				C587.7,239.1,587.4,239.1,587.1,239.2z"/>
			<path class="st33" d="M302,247.8c0.6-9.6,6.8-18.8,13-22.3c3.9-2.2,10.2-3.5,14.6-3.8l13.9-0.8l-0.4,2l-6.4,0.4
				c-4.5,0.3-10.8,1.6-14.6,3.8c-6.3,3.6-12.4,12.8-13,22.3c0,0-1.3,14.5,15.4,34.7l25.7,31.5c1.4,1.7,3.1,3.2,5,4.4
				c3,1.8,7.9,4.4,14.4,6.3c-10-1.6-17.5-5.4-21.4-7.9c-1.9-1.2-3.6-2.7-5.1-4.4l-25.7-31.5C300.7,262.4,302,247.8,302,247.8z"/>
		</g>
		<g>
			<polygon class="st34" points="542.9,271.1 556.8,283.9 555.1,285.4 541.1,272.9 			"/>
			<polygon class="st34" points="553,287.4 551.4,289 537.5,276.6 539.3,274.8 			"/>
			<path class="st34" d="M486.3,299l3.1,15.3c-0.7,0.1-1.5,0.2-2.3,0.3l-3.4-15.3L486.3,299z"/>
			<path class="st34" d="M484.4,315c-0.8,0.1-1.5,0.2-2.3,0.3l-3.4-15.5l2.5-0.3L484.4,315z"/>
			<polygon class="st34" points="346,297.1 335.6,304.9 334.2,303.1 344.4,295.2 			"/>
			<polygon class="st34" points="342.8,293.1 332.4,300.9 331,299.1 341.2,291.2 			"/>
			<path class="st34" d="M315.8,249.4c-0.1,0.8-0.2,1.7-0.2,2.5l-13.3,0.3c-0.1-0.9-0.2-1.7-0.2-2.3L315.8,249.4z"/>
			<path class="st34" d="M316.2,257l-12.9,0.3c-0.2-0.8-0.4-1.6-0.6-2.3l13-0.5C315.9,255.4,316,256.2,316.2,257z"/>
			<path class="st34" d="M326.4,234.9c-0.6,0.1-0.9,0.2-0.9,0.2c-0.5,0.3-1,0.5-1.4,0.8l-6.4-11.6c0.7-0.3,1.5-0.5,2.2-0.8
				L326.4,234.9z"/>
			<path class="st34" d="M325.1,222.3l6.7,11.6c-1,0.1-1.9,0.3-2.7,0.4l-6.4-11.6C323.5,222.6,324.3,222.4,325.1,222.3z"/>
		</g>
		<path class="st35" d="M566,260c3.1,3.6,10.5,2.2,16.4-3c6-5.2,8.3-12.3,5.1-15.9c-3.1-3.6-10.5-2.2-16.4,3
			C565.1,249.3,562.8,256.4,566,260z"/>
		<g>
			<path class="st2" d="M421.6,215.7c0,0-14.6-15.5-22.5-19.1c0,0-22.8,1.7-41.4,9.6l-2.8,4.8l-12.7,6.2c0,0-7,16.9-7.6,26.5
				c0,0,7.3,10.7,17.5,21.7c0,0,31.8,3.1,59.4-5.4c0,0,10.4-18,12.4-24.2C423.9,235.6,424.7,225.8,421.6,215.7z"/>
			<path class="st36" d="M415.1,253.6c-2,3.6-3.5,6.2-3.5,6.2c-27.6,8.4-59.4,5.4-59.4,5.4c-2.6-2.8-5.1-5.7-7.2-8.3
				C355.9,257.4,385.6,258,415.1,253.6z"/>
			<path class="st16" d="M423.9,235.6c-0.1,0.3-0.2,0.5-0.3,0.9L340,250.8c-3.4-4.3-5.3-7.2-5.3-7.2c0.2-2.7,0.8-5.9,1.7-9.2
				c35-9,85.3-18.6,85.3-18.6C424.7,225.8,423.9,235.6,423.9,235.6z"/>
			<path class="st37" d="M421.6,215.7c0.2,0.5,0.3,1,0.5,1.5l-86.2,18.9c0.1-0.5,0.3-1.1,0.4-1.6l0.6-0.3
				C371.8,225.2,421.6,215.7,421.6,215.7z"/>
			<path class="st37" d="M338.7,249.1l85.2-14.6c0,0.7-0.1,1.1-0.1,1.1c-0.1,0.3-0.2,0.5-0.3,0.9L340,250.8
				C339.5,250.2,339.1,249.7,338.7,249.1z"/>
			<path class="st38" d="M349.1,231.3l-12.3,1.3c2.3-7.9,5.4-15.5,5.4-15.5l12.7-6.2l2.8-4.8c18.6-7.9,41.4-9.6,41.4-9.6
				c1.6,0.7,3.4,1.9,5.3,3.4c-22.9,3.6-41.3,10.2-41.3,10.2L349.1,231.3z"/>
			<g>
				<path class="st8" d="M408.9,227.3c0,3.4,2.7,6.1,6.1,6.1c3.4,0,6.1-2.7,6.1-6.1c0-3.4-2.7-6.1-6.1-6.1
					C411.7,221.2,408.9,223.9,408.9,227.3z"/>
				<path class="st39" d="M410.7,227.3c0,2.4,2,4.4,4.4,4.4c2.4,0,4.4-2,4.4-4.4c0-2.4-2-4.4-4.4-4.4
					C412.6,222.9,410.7,224.8,410.7,227.3z"/>
				<path class="st40" d="M416,231.5c-0.3,0.1-0.7,0.1-1,0.1c-0.4,0-0.7,0-1-0.1V223c0.3-0.1,0.6-0.1,1-0.1c0.3,0,0.7,0,1,0.1V231.5
					z"/>
			</g>
			<g>
				<path class="st8" d="M350.3,239c0,3.4,2.7,6.1,6.1,6.1c3.4,0,6.1-2.7,6.1-6.1c0-3.4-2.7-6.1-6.1-6.1
					C353,232.9,350.3,235.6,350.3,239z"/>
				<path class="st39" d="M352,239c0,2.4,2,4.4,4.4,4.4c2.4,0,4.4-2,4.4-4.4c0-2.4-2-4.4-4.4-4.4C354,234.6,352,236.6,352,239z"/>
				<path class="st40" d="M357.4,243.3c-0.3,0.1-0.7,0.1-1,0.1c-0.4,0-0.7,0-1-0.1v-8.6c0.3-0.1,0.6-0.1,1-0.1c0.3,0,0.7,0,1,0.1
					V243.3z"/>
			</g>
			<g>
				<path class="st41" d="M342.2,217.1l12.5-6.1c-2.1,6.2-6.9,21.6-7.3,31.2c0,0,6.4,11.1,15.7,23.6c-6.8-0.1-11.1-0.5-11.1-0.5
					c-10.1-11-17.5-21.7-17.5-21.7C335.2,234,342.2,217.1,342.2,217.1z"/>
			</g>
		</g>
		<g>
			<path class="st8" d="M483.8,276.9c0,1.3,1,2.3,2.3,2.3c1.3,0,2.3-1,2.3-2.3c0-1.3-1-2.3-2.3-2.3
				C484.9,274.6,483.8,275.6,483.8,276.9z"/>
			<path class="st39" d="M484.5,276.9c0,0.9,0.8,1.7,1.7,1.7c0.9,0,1.7-0.8,1.7-1.7c0-0.9-0.8-1.7-1.7-1.7
				C485.2,275.2,484.5,276,484.5,276.9z"/>
		</g>
		<g>
			<path class="st8" d="M513.9,272.7c0,1.6,1.3,2.9,2.9,2.9c1.6,0,2.9-1.3,2.9-2.9c0-1.6-1.3-2.9-2.9-2.9
				C515.1,269.8,513.9,271.1,513.9,272.7z"/>
			<path class="st39" d="M514.7,272.7c0,1.2,0.9,2.1,2.1,2.1c1.2,0,2.1-0.9,2.1-2.1c0-1.2-0.9-2.1-2.1-2.1
				C515.6,270.6,514.7,271.5,514.7,272.7z"/>
		</g>
		<g>
			<path class="st2" d="M486.7,262.5c0,4.7,3.9,8.6,8.6,8.6c4.8,0,8.6-3.8,8.6-8.6c0-4.7-3.8-8.6-8.6-8.6
				C490.6,254,486.7,257.8,486.7,262.5z"/>
			<path class="st8" d="M489.3,262.5c0,3.3,2.7,6,6,6c3.3,0,6-2.7,6-6c0-3.3-2.7-6-6-6C492,256.6,489.3,259.2,489.3,262.5z"/>
			<path class="st18" d="M490.3,265.9l9.9-6.7c0.7,1,1.1,2.1,1.1,3.4c0,3.3-2.7,6-6,6C493.2,268.5,491.4,267.5,490.3,265.9z"/>
		</g>
		<g>
			<path class="st2" d="M338.7,204.3c0,4.7,3.8,8.6,8.6,8.6c4.8,0,8.6-3.8,8.6-8.6c0-4.7-3.8-8.6-8.6-8.6
				C342.6,195.7,338.7,199.5,338.7,204.3z"/>
			<path class="st8" d="M341.3,204.3c0,3.3,2.7,6,6,6c3.3,0,6-2.7,6-6c0-3.3-2.7-6-6-6C344,198.3,341.3,200.9,341.3,204.3z"/>
			<path class="st18" d="M342.3,207.6l9.9-6.7c0.7,1,1.1,2.1,1.1,3.4c0,3.3-2.7,6-6,6C345.2,210.3,343.4,209.2,342.3,207.6z"/>
		</g>
		<g>
			<path class="st42" d="M350.3,112.8v13.1c0,4.3,2,6.7,6.1,6.7c3.9,0,6-2.3,6-6.4v-0.6h-3.8v0.9c0,1.8-0.8,2.5-2.1,2.5
				c-1.4,0-2.2-0.7-2.2-3.1V121c0.7,1.5,1.9,2.3,3.7,2.3c3,0,4.5-2.1,4.5-5.8v-4.7c0-4.1-2.2-6.4-6.1-6.4
				C352.5,106.3,350.3,108.7,350.3,112.8z M354.4,112.5c0-1.8,0.8-2.5,2.1-2.5c1.3,0,2.1,0.7,2.1,2.5v4.6c0,1.8-0.8,2.5-2.1,2.5
				c-1.3,0-2.1-0.7-2.1-2.5V112.5z"/>
			<path class="st42" d="M335.9,112.8v13.1c0,4.3,2,6.7,6.1,6.7c3.9,0,6-2.3,6-6.4v-0.6h-3.8v0.9c0,1.8-0.8,2.5-2.1,2.5
				c-1.4,0-2.2-0.7-2.2-3.1V121c0.7,1.5,1.9,2.3,3.7,2.3c3,0,4.4-2.1,4.4-5.8v-4.7c0-4.1-2.2-6.4-6.1-6.4
				C338,106.3,335.9,108.7,335.9,112.8z M339.9,112.5c0-1.8,0.8-2.5,2.1-2.5c1.3,0,2.1,0.7,2.1,2.5v4.6c0,1.8-0.8,2.5-2.1,2.5
				c-1.3,0-2.1-0.7-2.1-2.5V112.5z"/>
			<path class="st42" d="M326.8,119.3c0,12.4,10.1,22.4,22.4,22.4c12.4,0,22.4-10.1,22.4-22.4c0-12.4-10.1-22.4-22.4-22.4
				C336.9,96.9,326.8,106.9,326.8,119.3z M328.6,119.3c0-11.4,9.3-20.7,20.7-20.7c11.4,0,20.7,9.3,20.7,20.7
				c0,11.4-9.3,20.7-20.7,20.7C337.8,140,328.6,130.7,328.6,119.3z"/>
		</g>
		<g>
			<g>
				<path class="st13" d="M418.4,294.3l-20.7,3.2l-0.3-3.8l-16.3-3.3l-27.2,9.3l1.3,3.6l3.5,2.3l9.6-2.8l14.6,14.6l2,2l34.5-19.5
					C419.4,299.9,423.8,295.4,418.4,294.3z M391,311.1l-2.5-6.5l21.5-4.2L391,311.1z"/>
			</g>
			<g>
				<path class="st8" d="M384.5,295c0.1,1.6-1.1,3-2.7,3.1c-1.6,0.1-3-1.1-3.1-2.7c-0.1-1.6,1.1-3,2.7-3.1
					C383,292.2,384.4,293.4,384.5,295z"/>
				<path class="st39" d="M383.7,295c0.1,1.1-0.8,2.1-1.9,2.2c-1.1,0.1-2.1-0.8-2.2-1.9c-0.1-1.1,0.8-2.1,1.9-2.2
					C382.6,293,383.6,293.9,383.7,295z"/>
			</g>
			<g>
				<path class="st8" d="M388.7,313.2c0.1,1.6-1.1,3-2.7,3.1c-1.6,0.1-3-1.1-3.1-2.7c-0.1-1.6,1.1-3,2.7-3.1
					C387.2,310.4,388.6,311.6,388.7,313.2z"/>
				<path class="st39" d="M387.9,313.2c0.1,1.1-0.8,2.1-1.9,2.2c-1.1,0.1-2.1-0.8-2.2-1.9c-0.1-1.1,0.8-2.1,1.9-2.2
					C386.8,311.2,387.8,312.1,387.9,313.2z"/>
			</g>
			<g>
				<path class="st43" d="M367.7,304.4c0.3,4.7-3.2,8.8-7.9,9.2c-4.7,0.3-8.8-3.2-9.2-7.9c-0.3-4.7,3.2-8.8,7.9-9.2
					C363.3,296.2,367.4,299.7,367.7,304.4z"/>
				<path class="st8" d="M365.2,304.6c0.2,3.3-2.3,6.2-5.6,6.4c-3.3,0.2-6.2-2.2-6.4-5.5c-0.2-3.3,2.2-6.2,5.6-6.4
					C362,298.8,364.9,301.3,365.2,304.6z"/>
				<path class="st18" d="M364.4,308l-10.4-6c-0.6,1-0.9,2.2-0.8,3.5c0.2,3.3,3.1,5.8,6.4,5.5C361.7,310.9,363.4,309.7,364.4,308z"
					/>
			</g>
		</g>
	</g>
</g>
</svg>
