<?xml version="1.0" encoding="utf-8"?>
<!-- Generator: Adobe Illustrator 21.0.0, SVG Export Plug-In . SVG Version: 6.00 Build 0)  -->
<svg version="1.1" id="Layer_1" xmlns="http://www.w3.org/2000/svg" xmlns:xlink="http://www.w3.org/1999/xlink" x="0px" y="0px"
	 viewBox="0 0 154 86" style="enable-background:new 0 0 154 86;" xml:space="preserve">
<style type="text/css">
	.st0{fill:#3B52A3;}
	.st1{fill:#EC1E24;}
	.st2{fill:#37B5E8;}
	.st3{stroke:#000000;stroke-miterlimit:10;}
	.st4{fill:#FFFFFF;stroke:#FFFFFF;stroke-miterlimit:10;}
</style>
<g>
	<polygon class="st0" points="111,17.9 107.2,10 66.7,10 41.9,78.3 89.2,78.3 	"/>
	<polygon class="st1" points="139.4,78.3 139.4,62.2 120.7,62.2 144.1,10 123.2,10 115.4,27.2 111,17.9 89.2,78.3 	"/>
	<polygon class="st2" points="56,10 39.9,32.5 23.5,10.1 13.4,10.1 13.4,78.3 41.8,78.3 66.7,10 	"/>
	<path class="st3" d="M16.4,33.9"/>
	<g>
		<path class="st4" d="M18.7,58.7V13.7L40,41.9l20.7-28.2h10.6c0,0,9.9,0.3,12.8,9.8c0,0,3.6,11.8-8.8,16.9l9.2,18.2h-8.2L64.3,34.6
			h6.1c0,0,7-0.2,6.7-6.9c0,0,0.1-6.3-7-6.2l-6-0.1L39.9,54.8L26.4,36.2v22.4L18.7,58.7z"/>
		<polygon class="st4" points="60.7,34.9 60.7,58.7 53,58.7 53,45.5 		"/>
		<path class="st4" d="M88.8,32.2h9l4.1,8H83.9C83.9,40.2,87.9,37.4,88.8,32.2z"/>
		<polygon class="st4" points="86.6,51.2 90.4,58.7 110.7,58.7 106.9,51.2 		"/>
		<path class="st4" d="M127.6,13.7l-11.4,27.2l-13.7-27.2h-1.7H82c3.3,1.8,4.8,4.3,5.7,5.9c0.3,0.5,0.5,1.1,0.7,1.7h9.4l18.5,36.9
			l20-44.5H127.6z"/>
	</g>
	<g>
		<path class="st4" d="M19.1,66.7l3.4,4.7l3.4-4.7V74h-1.2v-3.7l-2.2,3l-2.2-3V74h-1.2V66.7z"/>
		<path class="st4" d="M30.2,71h3.8v1.1h-3.8V71z"/>
		<path class="st4" d="M41.9,74l-1.5-2.6h-1.1V74h-1.2v-7.1h2.7c1.2,0,2.2,0.9,2.2,2.2c0,1-0.6,1.8-1.4,2.1l1.6,2.8H41.9z
			 M39.4,70.1h1.4c0.7,0,1.1-0.4,1.1-1c0-0.7-0.5-1-1.1-1h-1.4V70.1z"/>
		<path class="st4" d="M47,66.8h4.5V68h-3.2v1.8h2.9V71h-2.9v1.8h3.2V74H47V66.8z"/>
		<path class="st4" d="M54.7,66.8h1.4l1.8,4.5l1.8-4.5h1.4l-3.2,7.3L54.7,66.8z"/>
		<path class="st4" d="M69.4,72.4l1.1-0.5c0.2,0.6,0.6,0.9,1.2,0.9c0.6,0,1-0.4,1-1c0-1.4-3-1.1-3-3.2c0-1.2,0.9-1.9,1.9-1.9
			c0.9,0,1.7,0.5,1.9,1.3l-1.1,0.5c-0.1-0.4-0.4-0.7-0.8-0.7c-0.5,0-0.8,0.3-0.8,0.7c0,1.3,3,1,3,3.3c0,1.3-1,2.2-2.2,2.2
			C70.6,74.1,69.7,73.4,69.4,72.4z"/>
		<path class="st4" d="M77.7,66.8h2.7c1.2,0,2.2,0.8,2.2,2.2c0,1.4-1,2.3-2.2,2.3h-1.5V74h-1.2V66.8z M80.3,70.1c0.6,0,1-0.4,1-1
			c0-0.7-0.5-1-1-1h-1.5v2.1H80.3z"/>
		<path class="st4" d="M89.9,74l-1.5-2.6h-1.1V74h-1.2v-7.1h2.7c1.2,0,2.2,0.9,2.2,2.2c0,1-0.6,1.8-1.4,2.1l1.6,2.8H89.9z
			 M87.3,70.1h1.4c0.7,0,1.1-0.4,1.1-1c0-0.7-0.5-1-1.1-1h-1.4V70.1z"/>
		<path class="st4" d="M94.5,70.4c0-2.1,1.7-3.7,3.7-3.7c2.1,0,3.7,1.7,3.7,3.7c0,2.1-1.7,3.7-3.7,3.7
			C96.1,74.1,94.5,72.4,94.5,70.4z M100.6,70.4c0-1.3-1.1-2.5-2.5-2.5c-1.3,0-2.5,1.1-2.5,2.5c0,1.3,1.1,2.5,2.5,2.5
			C99.5,72.9,100.6,71.8,100.6,70.4z"/>
		<path class="st4" d="M105.4,70.4c0-2.1,1.7-3.7,3.7-3.7c0.6,0,1.1,0.1,1.7,0.4v1.5c-0.5-0.5-1-0.7-1.7-0.7c-1.4,0-2.5,1.1-2.5,2.4
			c0,1.4,1.1,2.4,2.5,2.4c0.7,0,1.2-0.2,1.7-0.7v1.5c-0.5,0.3-1.1,0.4-1.7,0.4C107.1,74.1,105.4,72.4,105.4,70.4z"/>
		<path class="st4" d="M118.4,74l-2.4-3.8V74h-1.2v-7.1h1.2V70l2.4-3.2h1.5l-2.5,3.3l2.5,3.9H118.4z"/>
		<path class="st4" d="M123.3,66.8h4.5V68h-3.2v1.8h2.9V71h-2.9v1.8h3.2V74h-4.5V66.8z"/>
		<path class="st4" d="M133,68h-1.8v-1.2h4.9V68h-1.8V74H133V68z"/>
	</g>
</g>
</svg>
